<svg width="46" height="46" viewBox="0 0 46 46" fill="none" xmlns="http://www.w3.org/2000/svg">
<path fill-rule="evenodd" clip-rule="evenodd" d="M24.44 41.177C24.587 41.164 24.726 41.151 24.856 41.137C24.867 41.135 24.878 41.134 24.889 41.134C24.995 41.134 25.08 41.22 25.08 41.325V45.42H25.079C25.079 45.518 25.004 45.601 24.905 45.609C24.739 45.624 24.588 45.636 24.449 45.645C24.305 45.655 24.155 45.664 23.995 45.672C23.814 45.681 23.626 45.688 23.431 45.692C23.218 45.697 23.026 45.7 22.852 45.7C19.758 45.7 16.807 45.084 14.114 43.969C11.316 42.81 8.799 41.113 6.693 39.007C5.636 37.949 4.68 36.786 3.844 35.536C3.017 34.3 2.307 32.978 1.731 31.588C1.166 30.224 0.730005 28.794 0.436005 27.314C0.150005 25.87 0 24.377 0 22.85C0 19.756 0.616003 16.805 1.731 14.112C2.89 11.314 4.587 8.797 6.693 6.692C7.342 6.044 8.03001 5.43299 8.75301 4.86499C9.47001 4.30199 10.224 3.779 11.01 3.302C11.742 2.858 12.499 2.454 13.276 2.095C14.046 1.739 14.839 1.42499 15.652 1.15599C15.674 1.14799 15.697 1.14299 15.722 1.14299C15.827 1.14299 15.913 1.228 15.913 1.334V5.681H15.912C15.912 5.756 15.868 5.82699 15.795 5.85699C15.25 6.08299 14.721 6.33399 14.208 6.60699C13.691 6.88199 13.187 7.184 12.698 7.508C12.186 7.848 11.689 8.21399 11.211 8.60399C10.734 8.99399 10.277 9.407 9.843 9.842C8.99 10.695 8.221 11.631 7.55 12.635C6.884 13.631 6.31301 14.695 5.84901 15.815C5.39501 16.912 5.04301 18.063 4.80701 19.257C4.57601 20.418 4.456 21.62 4.456 22.85C4.456 25.343 4.95101 27.719 5.84901 29.886C6.78101 32.136 8.147 34.162 9.844 35.858C10.697 36.711 11.633 37.48 12.637 38.152C13.633 38.818 14.697 39.389 15.817 39.853C16.914 40.307 18.065 40.659 19.259 40.895C20.421 41.125 21.622 41.246 22.852 41.246C23.058 41.246 23.249 41.243 23.423 41.238C23.611 41.232 23.805 41.223 24.005 41.211C24.142 41.201 24.287 41.19 24.44 41.177ZM20.625 27.179V25.093V24.53V13.657V13.576L20.546 13.596C20.125 13.701 19.716 13.833 19.322 13.99C18.922 14.149 18.534 14.336 18.16 14.548C17.785 14.76 17.426 14.998 17.084 15.258C16.743 15.517 16.419 15.801 16.114 16.105L16.111 16.108L16.099 16.119C15.661 16.558 15.266 17.04 14.921 17.555C14.577 18.071 14.28 18.623 14.04 19.204C13.804 19.772 13.622 20.369 13.5 20.988C13.381 21.59 13.318 22.213 13.318 22.85C13.318 23.487 13.381 24.11 13.5 24.712C13.622 25.331 13.805 25.928 14.04 26.497C14.28 27.078 14.576 27.63 14.921 28.146C15.269 28.666 15.668 29.151 16.11 29.593C16.553 30.036 17.038 30.434 17.558 30.782C18.074 31.127 18.626 31.423 19.207 31.664C19.775 31.899 20.372 32.082 20.992 32.204C21.594 32.323 22.217 32.386 22.854 32.386C24.147 32.386 25.379 32.129 26.501 31.664C27.667 31.181 28.716 30.473 29.597 29.593C30.039 29.15 30.438 28.665 30.786 28.146C31.131 27.63 31.427 27.078 31.668 26.497C31.903 25.929 32.086 25.332 32.208 24.712C32.327 24.11 32.39 23.487 32.39 22.85C32.39 22.234 32.331 21.632 32.22 21.051C32.105 20.451 31.935 19.873 31.715 19.321C31.497 18.774 31.229 18.251 30.917 17.758C30.605 17.264 30.247 16.8 29.852 16.373C29.815 16.338 29.792 16.289 29.792 16.234V11.031H29.793C29.793 10.997 29.802 10.963 29.82 10.933C29.874 10.843 29.992 10.814 30.081 10.868C30.287 10.992 30.495 11.125 30.703 11.267C30.912 11.409 31.112 11.552 31.3 11.695V11.696C31.555 11.889 31.802 12.091 32.042 12.3C32.287 12.514 32.522 12.734 32.747 12.958C33.394 13.605 33.98 14.317 34.492 15.084C34.998 15.841 35.433 16.65 35.785 17.501C36.131 18.336 36.399 19.212 36.578 20.118C36.753 21.002 36.845 21.917 36.845 22.852C36.845 23.787 36.753 24.701 36.578 25.585C36.399 26.491 36.132 27.367 35.785 28.202C35.433 29.053 34.998 29.862 34.492 30.619C33.983 31.38 33.401 32.089 32.756 32.734L32.747 32.744C32.1 33.391 31.388 33.976 30.621 34.489C29.865 34.995 29.055 35.43 28.204 35.782C27.369 36.128 26.493 36.396 25.587 36.575C24.702 36.75 23.788 36.842 22.853 36.842C21.918 36.842 21.003 36.75 20.119 36.575C19.213 36.396 18.338 36.128 17.502 35.782C16.65 35.43 15.842 34.995 15.085 34.489C14.321 33.978 13.61 33.394 12.963 32.747L12.96 32.744L12.959 32.743C12.311 32.095 11.726 31.383 11.214 30.618C10.708 29.861 10.273 29.052 9.92101 28.201C9.57501 27.366 9.30701 26.49 9.12801 25.584C8.95301 24.7 8.861 23.786 8.861 22.851C8.861 20.958 9.23801 19.15 9.92101 17.501C10.631 15.788 11.67 14.247 12.959 12.958C13.47 12.447 14.024 11.973 14.615 11.542C15.201 11.115 15.819 10.732 16.465 10.4C17.105 10.071 17.774 9.79 18.465 9.562C19.144 9.338 19.847 9.16399 20.571 9.04599L20.625 9.037V8.983V4.662V1.92299V0.280991C20.625 0.182991 20.7 0.0999882 20.8 0.0909882C20.941 0.0789882 21.092 0.0659927 21.255 0.0549927C21.398 0.0449927 21.549 0.0359999 21.708 0.0279999C21.889 0.0189999 22.077 0.0119956 22.273 0.00799561C22.486 0.00299561 22.679 0 22.853 0C25.947 0 28.898 0.616003 31.59 1.731C34.388 2.89 36.905 4.58699 39.011 6.69299C40.069 7.75099 41.024 8.914 41.861 10.164C42.688 11.4 43.398 12.722 43.974 14.112C44.539 15.476 44.975 16.906 45.269 18.386C45.555 19.83 45.705 21.323 45.705 22.851C45.705 25.945 45.089 28.896 43.974 31.589C42.815 34.387 41.118 36.903 39.012 39.009C38.364 39.657 37.675 40.268 36.952 40.836C36.235 41.399 35.48 41.922 34.694 42.399C33.962 42.843 33.205 43.247 32.428 43.606C31.658 43.962 30.865 44.276 30.052 44.545C30.031 44.553 30.007 44.558 29.982 44.558C29.877 44.558 29.791 44.473 29.791 44.367V40.02H29.792C29.792 39.945 29.836 39.874 29.909 39.844C30.454 39.618 30.983 39.367 31.496 39.094C32.013 38.819 32.517 38.517 33.006 38.193C33.518 37.854 34.014 37.487 34.492 37.097C34.969 36.707 35.426 36.294 35.86 35.859C36.713 35.006 37.482 34.07 38.154 33.066C38.82 32.07 39.391 31.006 39.855 29.886C40.309 28.789 40.661 27.638 40.897 26.444C41.127 25.283 41.248 24.081 41.248 22.851C41.248 20.358 40.753 17.981 39.855 15.815C38.923 13.565 37.557 11.539 35.86 9.843C35.143 9.126 34.367 8.46799 33.542 7.87799C32.72 7.28999 31.848 6.769 30.935 6.321C30.035 5.881 29.092 5.51099 28.114 5.21899C27.157 4.93399 26.166 4.72399 25.151 4.59799L25.08 4.58899V4.661V8.98199V13.658V24.531V25.094V27.18H25.079C25.079 27.251 25.039 27.32 24.97 27.352C24.817 27.424 24.66 27.488 24.502 27.544C24.346 27.599 24.185 27.646 24.018 27.686C23.828 27.731 23.636 27.766 23.442 27.789C23.247 27.812 23.05 27.823 22.852 27.823C22.653 27.823 22.456 27.811 22.262 27.789C22.069 27.767 21.876 27.732 21.686 27.686C21.523 27.647 21.364 27.6 21.211 27.547L21.202 27.544C21.048 27.49 20.895 27.427 20.747 27.358C20.676 27.33 20.625 27.26 20.625 27.179Z" fill="#009DFF"/>
</svg>
