<svg width="1440" height="535" viewBox="0 0 1440 535" fill="none" xmlns="http://www.w3.org/2000/svg">
<path d="M1494 -155H-22V557H1494V-155Z" fill="url(#paint0_linear)"/>
<g style="mix-blend-mode:multiply">
<g style="mix-blend-mode:multiply">
<path d="M997.058 254.344C1071.17 220.918 1109.29 95.437 1170.32 124.756C1231.43 153.761 1271.87 227.931 1279.83 299.952C1287.7 372.288 1262.77 442.395 1218.24 490.911C1173.78 539.113 1109.33 565.959 1046.39 564.173C983.535 562.073 921.796 531.577 872.159 479.441C822.521 427.306 784.671 353.452 798.922 291.336C813.251 228.906 923.264 287.849 997.058 254.344Z" fill="#E6F5FF"/>
</g>
</g>
<path d="M720 1178C1400.97 1178 1953 1017.49 1953 819.5C1953 621.506 1400.97 461 720 461C39.0329 461 -513 621.506 -513 819.5C-513 1017.49 39.0329 1178 720 1178Z" fill="white"/>
<defs>
<linearGradient id="paint0_linear" x1="29.9771" y1="-70.238" x2="1324.66" y2="32.097" gradientUnits="userSpaceOnUse">
<stop stop-color="#009DFF"/>
<stop offset="0.685237" stop-color="#6BCBFF"/>
<stop offset="1" stop-color="#8FD8FF"/>
</linearGradient>
</defs>
</svg>
