<svg width="329" height="348" viewBox="0 0 329 348" fill="none" xmlns="http://www.w3.org/2000/svg">
<g style="mix-blend-mode:multiply" opacity="0.65">
<path d="M120.113 241.945C139.484 241.913 158.765 246.451 169.097 258.799C179.477 271.086 180.91 291.183 175.511 307.637C170.065 324.151 157.728 336.974 143.276 343.181C128.872 349.327 112.245 348.87 98.7771 342.329C85.3575 335.728 74.9887 323.055 69.3834 306.855C63.778 290.654 62.8758 270.879 72.1078 258.752C81.3878 246.564 100.802 242.024 120.113 241.945Z" fill="#FFF170"/>
</g>
<g style="mix-blend-mode:multiply" opacity="0.15">
<path d="M319.674 65.6388C349.751 152.131 304.421 246.489 218.426 276.394C132.431 306.299 38.3354 260.425 8.25802 173.933C-21.8194 87.4402 44.7129 54.0515 130.708 24.147C216.703 -5.7575 289.597 -20.8536 319.674 65.6388Z" fill="#4DA9DA"/>
</g>
</svg>
