<svg width="100%" height="100%" viewBox="0 0 1440 2377" fill="none" xmlns="http://www.w3.org/2000/svg">
<g opacity="0.2">
<path d="M1203.91 2020.13C1171.73 1930.44 1028.65 1874.26 1068.57 1805.67C1108.12 1736.96 1198.54 1696.58 1283.42 1693.97C1368.67 1691.48 1448.27 1727.11 1500.83 1783.64C1553.03 1840.05 1578.42 1917.85 1570.5 1991.22C1562.22 2064.47 1520.86 2133.78 1455.34 2186.94C1389.82 2240.1 1300.02 2277.48 1228.76 2255.07C1157.15 2232.54 1236.22 2109.46 1203.91 2020.13Z" fill="#009DFF"/>
</g>
<path opacity="0.25" d="M-59.5207 2265.76C-72.1524 2295 -121.075 2310.73 -109.206 2334.45C-97.4602 2358.21 -68.1489 2373.59 -39.8828 2376.26C-11.4942 2378.89 15.8162 2368.68 34.5449 2350.93C53.1512 2333.22 63.2654 2307.8 62.1719 2283.15C60.9559 2258.54 48.6219 2234.54 27.8856 2215.42C7.14938 2196.3 -22.0219 2181.93 -46.2683 2187.9C-70.6371 2193.91 -46.8561 2236.64 -59.5207 2265.76Z" fill="#4DA9DA"/>
<g opacity="0.55">
<ellipse cx="61.5" cy="2235" rx="50.5" ry="51" fill="#FFF170"/>
</g>
<g style="mix-blend-mode:screen" opacity="0.75">
<path d="M-118.135 952.626C-141.546 1006.82 -232.217 1035.96 -210.221 1079.94C-188.451 1123.98 -134.126 1152.48 -81.7384 1157.42C-29.1239 1162.29 21.4925 1143.38 56.2038 1110.48C90.6883 1077.64 109.434 1030.53 107.407 984.856C105.153 939.238 82.2937 894.762 43.8617 859.325C5.4297 823.887 -48.6355 797.261 -93.5733 808.329C-138.738 819.457 -94.6627 898.655 -118.135 952.626Z" fill="#203546"/>
</g>
<g opacity="0.7">
<path d="M312 508.72C312 588.956 247.081 654 167 654C86.9187 654 22 588.956 22 508.72C22 428.485 86.9187 420 167 420C247.081 420 312 428.485 312 508.72Z" fill="#FFF170"/>
</g>
<g opacity="0.08">
<path d="M1540 433C1540 478.563 1522 515 1464.5 501C1418.94 501 1394 464.063 1394 418.5C1394 372.937 1418.94 336 1464.5 336C1510.06 336 1540 387.437 1540 433Z" fill="#009DFF"/>
</g>
<g>
<path d="M1326.25 157.548C1400.36 124.122 1438.49 -1.35902 1499.52 27.9597C1560.63 56.9646 1601.07 131.135 1609.02 203.156C1616.89 275.492 1591.96 345.599 1547.43 394.115C1502.98 442.317 1438.53 469.163 1375.59 467.377C1312.73 465.277 1250.99 434.781 1201.36 382.646C1151.72 330.51 1113.87 256.656 1128.12 194.54C1142.45 132.11 1252.46 191.053 1326.25 157.548Z" fill="#E6F5FF"/>
</g>
<path opacity="0.15" d="M114.15 147.75C137.562 201.948 228.233 231.085 206.236 275.062C184.466 319.1 130.141 347.603 77.7538 352.541C25.1392 357.419 -25.4772 338.504 -60.1885 305.606C-94.673 272.768 -113.418 225.659 -111.392 179.98C-109.138 134.362 -86.2784 89.8863 -47.8464 54.4488C-9.41438 19.0112 44.6508 -7.61528 89.5886 3.45265C134.753 14.5814 90.678 93.7793 114.15 147.75Z" fill="#4DA9DA"/>
<g opacity="0.65">
<path d="M177.054 126.154C189.121 141.308 197.553 159.231 194.304 175C191.132 190.769 176.281 204.385 160.037 210.385C143.716 216.385 126.002 214.692 112.156 207.231C98.3875 199.769 88.4091 186.462 85.1603 171.846C81.9889 157.231 85.4697 141.231 94.6746 126.769C103.879 112.308 118.808 99.3077 134.047 99C149.362 98.6923 164.987 111.077 177.054 126.154Z" fill="#FFF170"/>
</g>
</svg>
