<svg fill="none" xmlns="http://www.w3.org/2000/svg">
<path opacity="0.25" d="M-59.5207 2722.76C-72.1524 2752 -121.075 2767.73 -109.206 2791.45C-97.4602 2815.21 -68.1489 2830.59 -39.8828 2833.26C-11.4942 2835.89 15.8162 2825.68 34.5449 2807.93C53.1512 2790.22 63.2654 2764.8 62.1719 2740.15C60.9559 2715.54 48.6219 2691.54 27.8856 2672.42C7.14938 2653.3 -22.0219 2638.93 -46.2683 2644.9C-70.6371 2650.91 -46.8561 2693.64 -59.5207 2722.76Z" fill="#4DA9DA"/>
<g style="mix-blend-mode:multiply" opacity="0.55">
<ellipse cx="61.5" cy="2692" rx="50.5" ry="51" fill="#FFF170"/>
</g>
<g style="mix-blend-mode:multiply" opacity="0.7">
<path d="M312 965.72C312 1045.96 247.081 1111 167 1111C86.9187 1111 22 1045.96 22 965.72C22 885.485 86.9187 877 167 877C247.081 877 312 885.485 312 965.72Z" fill="#FFF170"/>
</g>
<path opacity="0.15" d="M114.15 604.75C137.562 658.948 228.233 688.085 206.236 732.062C184.466 776.1 130.141 804.603 77.7538 809.541C25.1392 814.419 -25.4772 795.504 -60.1885 762.606C-94.673 729.768 -113.418 682.659 -111.392 636.98C-109.138 591.362 -86.2784 546.886 -47.8464 511.449C-9.41438 476.011 44.6508 449.385 89.5886 460.453C134.753 471.581 90.678 550.779 114.15 604.75Z" fill="#4DA9DA"/>
<g style="mix-blend-mode:multiply" opacity="0.65">
<path d="M177.054 583.154C189.121 598.308 197.553 616.231 194.304 632C191.132 647.769 176.281 661.385 160.037 667.385C143.716 673.385 126.002 671.692 112.156 664.231C98.3875 656.769 88.4091 643.462 85.1603 628.846C81.9889 614.231 85.4697 598.231 94.6746 583.769C103.879 569.308 118.808 556.308 134.047 556C149.362 555.692 164.987 568.077 177.054 583.154Z" fill="#FFF170"/>
</g>
</svg>
