<svg fill="none" xmlns="http://www.w3.org/2000/svg">
<g style="mix-blend-mode:multiply" opacity="0.2">
<path d="M1203.91 2477.13C1171.73 2387.44 1028.65 2331.26 1068.57 2262.67C1108.12 2193.96 1198.54 2153.58 1283.42 2150.97C1368.67 2148.48 1448.27 2184.11 1500.83 2240.64C1553.03 2297.05 1578.42 2374.85 1570.5 2448.22C1562.22 2521.47 1520.86 2590.78 1455.34 2643.94C1389.82 2697.1 1300.02 2734.48 1228.76 2712.07C1157.15 2689.54 1236.22 2566.46 1203.91 2477.13Z" fill="#009DFF"/>
</g>
<g style="mix-blend-mode:multiply" opacity="0.08">
<path d="M1540 890C1540 935.563 1522 972 1464.5 958C1418.94 958 1394 921.063 1394 875.5C1394 829.937 1418.94 793 1464.5 793C1510.06 793 1540 844.437 1540 890Z" fill="#009DFF"/>
</g>
<g style="mix-blend-mode:multiply">
<path d="M1326.25 614.548C1400.36 581.122 1438.49 455.641 1499.52 484.96C1560.63 513.965 1601.07 588.135 1609.02 660.156C1616.89 732.492 1591.96 802.599 1547.43 851.115C1502.98 899.317 1438.53 926.163 1375.59 924.377C1312.73 922.277 1250.99 891.781 1201.36 839.646C1151.72 787.51 1113.87 713.656 1128.12 651.54C1142.45 589.11 1252.46 648.053 1326.25 614.548Z" fill="#E6F5FF"/>
</g>
</svg>
