<svg width="466" height="286" viewBox="0 0 466 286" fill="none" xmlns="http://www.w3.org/2000/svg">
<rect width="58.429" height="58.429" rx="4" transform="matrix(-1 0 0 1 329.884 91.0448)" fill="#E6F5FF"/>
<rect opacity="0.4" width="58.429" height="58.429" rx="4" transform="matrix(-1 0 0 1 262.105 91.0448)" fill="#E6F5FF"/>
<rect opacity="0.1" width="58.429" height="58.429" rx="4" transform="matrix(-1 0 0 1 194.328 166.822)" fill="#4DA9DA"/>
<rect width="43" height="43" rx="4" transform="matrix(-1 0 0 1 361 154)" fill="#E6F5FF"/>
<rect opacity="0.4" width="28" height="28" rx="4" transform="matrix(-1 0 0 1 395 200)" fill="#E6F5FF"/>
<rect opacity="0.6" width="58.429" height="58.429" rx="4" transform="matrix(-1 0 0 1 194.328 91.0448)" fill="#E6F5FF"/>
<rect opacity="0.81" width="58.429" height="58.429" rx="4" transform="matrix(-1 0 0 1 329.884 23.2672)" fill="#E6F5FF"/>
<rect opacity="0.7" width="23" height="23" rx="4" transform="matrix(-1 0 0 1 357 -0.00012207)" fill="#E6F5FF"/>
<rect opacity="0.6" width="31" height="30" rx="4" transform="matrix(-1 0 0 1 127 119)" fill="#E6F5FF"/>
<rect width="58.429" height="58.429" rx="4" transform="matrix(-1 0 0 1 101.429 158.822)" fill="#E6F5FF"/>
<rect opacity="0.4" width="58.429" height="58.429" rx="4" transform="matrix(-1 0 0 1 58.7725 23.2672)" fill="#E6F5FF"/>
<rect opacity="0.4" width="58.429" height="58.429" rx="4" transform="matrix(-1 0 0 1 126.551 226.6)" fill="#E6F5FF"/>
<rect opacity="0.1" width="58.429" height="58.429" rx="4" transform="matrix(-1 0 0 1 397.661 91.0448)" fill="#4DA9DA"/>
<rect opacity="0.4" width="58.429" height="58.429" rx="4" transform="matrix(-1 0 0 1 465.438 91.0448)" fill="#E6F5FF"/>
</svg>
