<svg width="100%" height="100%" viewBox="0 0 1440 513" fill="none" xmlns="http://www.w3.org/2000/svg">
<rect x="183.117" y="211.045" width="58.429" height="58.429" rx="4" fill="#E6F5FF"/>
<rect opacity="0.4" x="251" y="203" width="31" height="31" rx="4" fill="#E6F5FF"/>
<rect opacity="0.1" x="332" y="279" width="45" height="45" rx="4" fill="#203546"/>
<rect x="297" y="327" width="34" height="33" rx="4" fill="#E6F5FF"/>
<rect opacity="0.4" x="271" y="362" width="22" height="22" rx="4" fill="#E6F5FF"/>
<rect opacity="0.6" x="318.672" y="211.045" width="58.429" height="58.429" rx="4" fill="#E6F5FF"/>
<rect x="183.117" y="143.267" width="58.429" height="58.429" rx="4" fill="#E6F5FF"/>
<rect opacity="0.7" x="911" y="392" width="23" height="23" rx="4" fill="#E6F5FF"/>
<rect opacity="0.6" x="386" y="239" width="31" height="30" rx="4" fill="#E6F5FF"/>
<rect opacity="0.5" x="454" y="308" width="29" height="29" rx="4" fill="#E6F5FF"/>
<rect x="386.45" y="278.823" width="58.429" height="58.429" rx="4" fill="#E6F5FF"/>
<rect opacity="0.4" x="454.228" y="143.267" width="58.429" height="58.429" rx="4" fill="#E6F5FF"/>
<rect opacity="0.4" x="386.45" y="346.6" width="58.429" height="58.429" rx="4" fill="#E6F5FF"/>
<rect opacity="0.3" x="545" y="347" width="44" height="43" rx="4" fill="#E6F5FF"/>
<rect opacity="0.1" x="115.339" y="211.045" width="58.429" height="58.429" rx="4" fill="#203546"/>
<rect opacity="0.4" x="78" y="211" width="28" height="28" rx="4" fill="#E6F5FF"/>
<path d="M100.903 32.1643L190.926 497.994L-48.074 288.994L100.903 32.1643Z" fill="url(#paint0_linear)"/>
<rect width="29" height="29" rx="4" transform="matrix(-1 0 0 1 1248 179)" fill="#E6F5FF"/>
<rect opacity="0.4" width="58.429" height="58.429" rx="4" transform="matrix(-1 0 0 1 1196.11 211.045)" fill="#E6F5FF"/>
<rect opacity="0.1" width="58.429" height="58.429" rx="4" transform="matrix(-1 0 0 1 1128.33 278.823)" fill="#4DA9DA"/>
<rect width="43" height="43" rx="4" transform="matrix(-1 0 0 1 1173 341)" fill="#E6F5FF"/>
<rect opacity="0.4" width="28" height="28" rx="4" transform="matrix(-1 0 0 1 1207 387)" fill="#E6F5FF"/>
<rect opacity="0.6" width="58.429" height="58.429" rx="4" transform="matrix(-1 0 0 1 1128.33 211.045)" fill="#E6F5FF"/>
<rect width="27" height="27" rx="4" transform="matrix(-1 0 0 1 1216 148)" fill="#E6F5FF"/>
<rect opacity="0.7" width="23" height="23" rx="4" transform="matrix(-1 0 0 1 1163 279)" fill="#E6F5FF"/>
<rect opacity="0.6" width="31" height="30" rx="4" transform="matrix(-1 0 0 1 1061 239)" fill="#E6F5FF"/>
<rect opacity="0.5" width="29" height="29" rx="4" transform="matrix(-1 0 0 1 993 308)" fill="#E6F5FF"/>
<rect width="58.429" height="58.429" rx="4" transform="matrix(-1 0 0 1 1060.55 278.823)" fill="#E6F5FF"/>
<rect opacity="0.4" width="58.429" height="58.429" rx="4" transform="matrix(-1 0 0 1 992.773 143.267)" fill="#E6F5FF"/>
<rect opacity="0.4" width="58.429" height="58.429" rx="4" transform="matrix(-1 0 0 1 1060.55 346.6)" fill="#E6F5FF"/>
<rect width="40" height="39" rx="4" transform="matrix(-1 0 0 1 974 347)" fill="#E6F5FF"/>
<rect width="30" height="30" rx="4" transform="matrix(-1 0 0 1 1100 346)" fill="#E6F5FF"/>
<rect opacity="0.1" width="58.429" height="58.429" rx="4" transform="matrix(-1 0 0 1 1323.66 179.045)" fill="#4DA9DA"/>
<rect opacity="0.4" width="25" height="25" rx="4" transform="matrix(-1 0 0 1 1366 195)" fill="#E6F5FF"/>
<path d="M1338.1 0.164171L1248.07 465.994L1487.07 256.994L1338.1 0.164171Z" fill="url(#paint1_linear)"/>
<rect width="58.429" height="58.429" rx="4" transform="matrix(-1 0 0 1 859.883 211.045)" fill="#E6F5FF"/>
<rect opacity="0.4" width="58.429" height="58.429" rx="4" transform="matrix(-1 0 0 1 792.106 211.045)" fill="#E6F5FF"/>
<rect opacity="0.1" width="58.429" height="58.429" rx="4" transform="matrix(-1 0 0 1 724.328 286.823)" fill="#4DA9DA"/>
<rect width="43" height="43" rx="4" transform="matrix(-1 0 0 1 891 274)" fill="#E6F5FF"/>
<rect opacity="0.4" width="28" height="28" rx="4" transform="matrix(-1 0 0 1 925 320)" fill="#E6F5FF"/>
<rect opacity="0.6" width="58.429" height="58.429" rx="4" transform="matrix(-1 0 0 1 724.328 211.045)" fill="#E6F5FF"/>
<rect width="58.429" height="58.429" rx="4" transform="matrix(-1 0 0 1 859.883 143.267)" fill="#E6F5FF"/>
<rect opacity="0.7" width="23" height="23" rx="4" transform="matrix(-1 0 0 1 887 120)" fill="#E6F5FF"/>
<rect opacity="0.6" width="31" height="30" rx="4" transform="matrix(-1 0 0 1 657 239)" fill="#E6F5FF"/>
<rect width="58.429" height="58.429" rx="4" transform="matrix(-1 0 0 1 631.429 278.823)" fill="#E6F5FF"/>
<rect opacity="0.4" width="58.429" height="58.429" rx="4" transform="matrix(-1 0 0 1 588.773 143.267)" fill="#E6F5FF"/>
<rect opacity="0.4" width="58.429" height="58.429" rx="4" transform="matrix(-1 0 0 1 656.551 346.6)" fill="#E6F5FF"/>
<rect opacity="0.1" width="58.429" height="58.429" rx="4" transform="matrix(-1 0 0 1 927.661 211.045)" fill="#4DA9DA"/>
<rect opacity="0.4" width="58.429" height="58.429" rx="4" transform="matrix(-1 0 0 1 995.438 211.045)" fill="#E6F5FF"/>
<defs>
<linearGradient id="paint0_linear" x1="-204.005" y1="287.494" x2="147.177" y2="286.668" gradientUnits="userSpaceOnUse">
<stop stop-color="white"/>
<stop offset="1" stop-color="white" stop-opacity="0"/>
</linearGradient>
<linearGradient id="paint1_linear" x1="1643.01" y1="255.494" x2="1291.82" y2="254.668" gradientUnits="userSpaceOnUse">
<stop stop-color="white"/>
<stop offset="1" stop-color="white" stop-opacity="0"/>
</linearGradient>
</defs>
</svg>
